<svg width="24" height="24" viewBox="0 0 24 24" fill="none" xmlns="http://www.w3.org/2000/svg">
<path d="M16.4557 9.08862C16.1328 8.89809 15.7131 8.89809 15.3579 9.08862L12.8395 10.5494L11.1282 11.502L8.60978 12.9627C8.2869 13.1533 7.86716 13.1533 7.51199 12.9627L5.51015 11.8196C5.18727 11.629 4.96125 11.2797 4.96125 10.8987V8.64405C4.96125 8.26298 5.15498 7.91368 5.51015 7.72315L7.4797 6.61172C7.80258 6.42119 8.22232 6.42119 8.57749 6.61172L10.547 7.72315C10.8699 7.91368 11.0959 8.26298 11.0959 8.64405V10.1048L12.8072 9.12037V7.65964C12.8072 7.27858 12.6135 6.92927 12.2583 6.73874L8.60978 4.6429C8.2869 4.45237 7.86716 4.45237 7.51199 4.6429L3.79889 6.73874C3.44373 6.92927 3.25 7.27858 3.25 7.65964V11.8831C3.25 12.2641 3.44373 12.6134 3.79889 12.804L7.51199 14.8998C7.83487 15.0903 8.25461 15.0903 8.60978 14.8998L11.1282 13.4708L12.8395 12.4864L15.3579 11.0574C15.6808 10.8669 16.1006 10.8669 16.4557 11.0574L18.4253 12.1689C18.7482 12.3594 18.9742 12.7087 18.9742 13.0898V15.3444C18.9742 15.7254 18.7804 16.0748 18.4253 16.2653L16.4557 17.4085C16.1328 17.599 15.7131 17.599 15.3579 17.4085L13.3884 16.297C13.0655 16.1065 12.8395 15.7572 12.8395 15.3761V13.9154L11.1282 14.8998V16.3605C11.1282 16.7416 11.322 17.0909 11.6771 17.2814L15.3902 19.3773C15.7131 19.5678 16.1328 19.5678 16.488 19.3773L20.2011 17.2814C20.524 17.0909 20.75 16.7416 20.75 16.3605V12.1371C20.75 11.7561 20.5563 11.4067 20.2011 11.2162L16.4557 9.08862Z" fill="#8247E5"/>
</svg>
