<svg width="63" height="64" viewBox="0 0 63 64" fill="none" xmlns="http://www.w3.org/2000/svg">
<path d="M8.97941 9.39933C8.97941 7.0295 9.92082 4.75673 11.5965 3.081C13.2723 1.40528 15.545 0.463867 17.9149 0.463867C20.2847 0.463867 22.5575 1.40528 24.2332 3.081C25.9089 4.75673 26.8503 7.0295 26.8503 9.39933C26.8503 11.7692 25.9089 14.0419 24.2332 15.7177C22.5575 17.3934 20.2847 18.3348 17.9149 18.3348C15.545 18.3348 13.2723 17.3934 11.5965 15.7177C9.92082 14.0419 8.97941 11.7692 8.97941 9.39933V9.39933ZM39.2662 16.4762L39.4538 16.6192C41.3494 18.0243 43.7239 18.6226 46.059 18.2835C48.3941 17.9443 50.5003 16.6953 51.9179 14.809C53.3355 12.9227 53.9495 10.5522 53.6258 8.21493C53.302 5.87763 52.067 3.76325 50.1901 2.33322C48.3131 0.903189 45.9468 0.273616 43.6074 0.581892C41.268 0.890168 39.1455 2.11126 37.7031 3.9787C36.2607 5.84613 35.6156 8.20828 35.9084 10.5497C36.2012 12.891 37.4083 15.0215 39.2662 16.4762V16.4762ZM23.58 22.8025C24.1411 21.7399 24.9108 20.8014 25.8431 20.0432C26.7753 19.285 27.8509 18.7225 29.0055 18.3896C30.1601 18.0567 31.37 17.96 32.5629 18.1055C33.7557 18.2509 34.9069 18.6355 35.9477 19.2361C36.9885 19.8368 37.8974 20.6412 38.6201 21.6012C39.3428 22.5613 39.8644 23.6572 40.1538 24.8235C40.4432 25.9898 40.4943 27.2025 40.3042 28.389C40.114 29.5756 39.6865 30.7116 39.0472 31.729C37.8173 33.6865 35.8767 35.0911 33.633 35.6478C31.3892 36.2044 29.0171 35.8699 27.0149 34.7143C25.0126 33.5588 23.5362 31.6722 22.8956 29.451C22.2551 27.2298 22.5004 24.8467 23.58 22.8025V22.8025ZM6.74554 22.8025H18.6744C17.8803 25.0701 17.7077 27.509 18.1744 29.8658C18.641 32.2227 19.73 34.4117 21.3282 36.2057H20.1487C17.8453 36.2054 15.5981 36.9169 13.7147 38.2429C11.8312 39.5689 10.4036 41.4446 9.62723 43.6132C8.12756 43.0108 6.72342 42.1936 5.45883 41.1872C2.0991 38.4843 0.0439453 34.4901 0.0439453 29.5041C0.0439453 27.7267 0.750004 26.0222 2.0068 24.7654C3.26359 23.5086 4.96817 22.8025 6.74554 22.8025V22.8025ZM42.4874 36.2057C44.7902 36.2057 47.0367 36.9174 48.9194 38.2434C50.802 39.5694 52.2288 41.445 53.0044 43.6132C54.5235 42.9922 55.9308 42.1835 57.1773 41.1872C60.537 38.4843 62.5922 34.4901 62.5922 29.5041C62.5922 27.7267 61.8861 26.0222 60.6293 24.7654C59.3725 23.5086 57.668 22.8025 55.8906 22.8025H43.9617C44.4532 24.2009 44.7213 25.7065 44.7213 27.2703C44.7254 30.5679 43.5096 33.7506 41.3079 36.2057H42.4874ZM48.6841 44.8195C49.0103 45.6058 49.189 46.4726 49.189 47.375C49.189 52.361 47.1383 56.3552 43.7741 59.0582C40.4635 61.7165 36.0226 63.0121 31.3181 63.0121C26.6135 63.0121 22.1726 61.7165 18.862 59.0582C15.5023 56.3552 13.4471 52.361 13.4471 47.375C13.4448 46.4943 13.6165 45.6218 13.9525 44.8077C14.2884 43.9935 14.782 43.2538 15.4047 42.631C16.0275 42.0083 16.7672 41.5147 17.5814 41.1788C18.3955 40.8428 19.268 40.6711 20.1487 40.6734H42.4874C43.8148 40.6731 45.1123 41.067 46.2156 41.8052C47.3188 42.5433 48.178 43.5924 48.6841 44.8195Z" fill="white"/>
</svg>
