<svg width="81" height="81" viewBox="0 0 81 81" fill="none" xmlns="http://www.w3.org/2000/svg">
<path fill-rule="evenodd" clip-rule="evenodd" d="M38.7059 0.456751C35.1401 1.41638 32.8588 4.3556 32.8588 7.99029C32.8588 11.205 34.8056 14.1362 37.6127 15.1478L38.2021 15.3603V17.8821V20.404H40.5594H42.9167V17.863V15.3221L43.363 15.224C43.8711 15.1125 45.2924 14.2187 45.954 13.5947C46.1982 13.3643 46.675 12.762 47.0132 12.2565C49.1207 9.10721 48.5148 4.5968 45.6529 2.1282C43.7619 0.497135 41.0131 -0.164248 38.7059 0.456751ZM15.0836 10.1704C14.5126 10.372 13.7347 10.7507 13.3549 11.0122C12.5496 11.5664 11.3838 12.7828 10.9048 13.5686C9.57562 15.7493 9.5753 19.2395 10.9039 21.4254C11.4057 22.2508 12.6871 23.5571 13.5081 24.08C15.3438 25.2493 18.0844 25.556 20.1293 24.8212L21.1508 24.4542L22.8995 26.1786L24.6481 27.9028L26.335 26.2161L28.0219 24.5294L26.2883 22.781L24.5548 21.0325L24.878 20.2469C25.1073 19.6898 25.2228 18.9811 25.2752 17.8113C25.3382 16.4032 25.2987 16.0116 25.0057 15.14C24.209 12.77 22.4686 10.9902 20.1461 10.1704C19.3377 9.88519 18.7772 9.80395 17.6148 9.80395C16.4525 9.80395 15.892 9.88519 15.0836 10.1704ZM60.9726 10.1704C60.4017 10.372 59.6238 10.7507 59.2439 11.0122C58.4387 11.5664 57.2729 12.7828 56.7939 13.5686C55.7452 15.2891 55.4801 18.0671 56.1788 20.0112L56.5459 21.0325L54.8177 22.7846L53.0894 24.5368L54.7763 26.2235L56.4632 27.9102L58.2157 26.1822L59.9679 24.4542L60.9894 24.8212C63.0343 25.556 65.7749 25.2493 67.6107 24.08C68.4316 23.5571 69.7131 22.2508 70.2149 21.4254C71.6311 19.0954 71.5302 15.4676 69.987 13.2375C68.3826 10.919 66.2772 9.80395 63.5039 9.80395C62.3416 9.80395 61.781 9.88519 60.9726 10.1704ZM37.4163 25.3437C31.4268 26.6083 26.6955 31.3607 25.4584 37.3547C23.4979 46.853 30.837 55.8339 40.5594 55.8339C44.8164 55.8339 48.6916 54.1799 51.643 51.1034C54.4859 48.1398 55.9564 44.5042 55.9564 40.4388C55.9564 35.2393 53.3475 30.4132 48.9817 27.5368C45.6592 25.3478 41.306 24.5224 37.4163 25.3437ZM5.6675 33.0968C4.32792 33.5534 3.15382 34.3191 2.3044 35.2899C-2.11399 40.3402 1.40768 48.1384 8.10701 48.1384C11.3221 48.1384 14.2536 46.1918 15.2654 43.385L15.4779 42.7958H18H20.5222V40.4388V38.0817H17.9809H15.4397L15.3416 37.6355C15.2314 37.1336 14.3471 35.7227 13.7121 35.0355C13.0418 34.3102 11.5132 33.3887 10.4198 33.051C9.00405 32.6139 7.02815 32.6329 5.6675 33.0968ZM70.5722 33.0968C69.3931 33.4987 68.2023 34.2211 67.4848 34.9695C66.8005 35.6834 65.8956 37.096 65.7771 37.6355L65.6791 38.0817H63.1379H60.5965V40.4388V42.7958H63.1379H65.6791L65.7771 43.2421C65.8873 43.7439 66.7716 45.1549 67.4067 45.842C67.6371 46.0914 68.2449 46.5697 68.7573 46.905C72.5862 49.4101 77.9362 47.9965 79.9143 43.957C81.3441 41.0374 80.9452 37.7752 78.8602 35.3363C76.9296 33.0779 73.4139 32.1279 70.5722 33.0968ZM22.9003 54.7173L21.1975 56.4251L20.1527 56.0563C18.0731 55.3223 15.3466 55.6265 13.5081 56.7975C12.6871 57.3204 11.4057 58.6267 10.9039 59.4521C9.57562 61.6374 9.57562 65.1236 10.9039 67.3089C11.4057 68.1343 12.6871 69.4406 13.5081 69.9636C15.9372 71.5107 19.5478 71.4664 21.8821 69.8605C23.3812 68.8294 24.4331 67.4407 25.0057 65.7376C25.2987 64.8659 25.3382 64.4743 25.2752 63.0663C25.2228 61.8964 25.1073 61.1877 24.878 60.6307L24.5548 59.845L26.2921 58.0929L28.0293 56.3407L26.3635 54.6752C25.4474 53.7591 24.6764 53.0096 24.6503 53.0096C24.6242 53.0096 23.8366 53.7781 22.9003 54.7173ZM54.7215 54.6864L53.0898 56.341L54.8178 58.0929L56.5459 59.845L56.1788 60.8664C55.4802 62.8097 55.7449 65.5845 56.7929 67.3089C57.2947 68.1343 58.5762 69.4406 59.3972 69.9636C61.8252 71.5101 65.4369 71.4664 67.7688 69.8622C69.2273 68.8587 70.262 67.5242 70.8314 65.9115C71.5268 63.9415 71.2629 61.1764 70.2149 59.4521C69.7131 58.6267 68.4316 57.3204 67.6107 56.7975C65.7721 55.6265 63.0456 55.3223 60.966 56.0563L59.9213 56.4251L58.2185 54.7173C57.2822 53.7781 56.4793 53.0146 56.4346 53.0207C56.39 53.0267 55.619 53.7764 54.7215 54.6864ZM38.2021 63.0146V65.5554L37.7557 65.6535C37.2538 65.7636 35.8427 66.6478 35.1555 67.2828C34.9061 67.5132 34.4277 68.121 34.0923 68.6332C31.587 72.4617 33.0007 77.8111 37.0407 79.7889C39.3664 80.9277 41.7842 80.9313 44.0953 79.7998C48.1523 77.8133 49.5365 72.3713 46.9598 68.5383C46.1776 67.3748 44.7128 66.1456 43.6632 65.7723L42.9167 65.5067V62.99V60.4735H40.5594H38.2021V63.0146Z" fill="white"/>
</svg>
