<svg width="68" height="60" viewBox="0 0 68 60" fill="none" xmlns="http://www.w3.org/2000/svg">
<path d="M64.385 1.23265C63.7334 -0.206955 61.8717 -0.264539 61.0921 1.09445C57.485 7.30201 51.0271 11.1717 43.65 11.1717H34.3413C22.0074 11.1717 12.0006 21.0761 12.0006 33.284C12.0006 34.0901 12.0937 34.8618 12.1751 35.6449C19.5988 30.3817 30.3153 25.9132 45.5117 25.9132C46.5357 25.9132 47.3735 26.7424 47.3735 27.7559C47.3735 28.7694 46.5357 29.5986 45.5117 29.5986C16.2593 29.5986 3.85549 47.346 1.10944 54.0142C0.341477 55.8915 1.24907 58.0336 3.14571 58.8052C5.05398 59.5884 7.21825 58.6786 8.00948 56.8128C8.18402 56.3982 10.4414 51.2963 16.3756 46.3786C20.1456 51.4345 27.3133 56.26 36.7267 55.2696C54.9949 53.9567 67.8525 37.741 67.8525 17.886C67.8525 12.1045 66.5958 6.11578 64.385 1.23265V1.23265Z" fill="white"/>
</svg>
