<svg width="60" height="51" viewBox="0 0 60 51" fill="none" xmlns="http://www.w3.org/2000/svg">
<path d="M28.8549 50.7073C28.32 50.7041 27.7926 50.5815 27.3112 50.3483C26.7622 50.0248 26.3231 49.5438 26.051 48.9676C25.7789 48.3914 25.6864 47.7467 25.7854 47.1172V35.0906L6.34529 49.9534C5.82925 50.3619 5.208 50.6159 4.55354 50.6857C3.89908 50.7556 3.23822 50.6386 2.64754 50.3483C2.04668 50.0497 1.54151 49.5887 1.18933 49.0176C0.837157 48.4465 0.65207 47.7882 0.655065 47.1172V4.03669C0.65207 3.36575 0.837157 2.70739 1.18933 2.13629C1.54151 1.5652 2.04668 1.10422 2.64754 0.805652C3.23768 0.513162 3.89897 0.39496 4.55389 0.464904C5.20881 0.534847 5.83023 0.790036 6.34529 1.20056L25.7854 16.0454V4.03669C25.6902 3.41002 25.7846 2.7692 26.0565 2.19662C26.3284 1.62404 26.7653 1.14588 27.3112 0.823602C27.9013 0.531112 28.5626 0.412911 29.2175 0.482854C29.8724 0.552797 30.4938 0.807986 31.0089 1.21851L58.5086 22.7588C58.9377 23.0946 59.2848 23.5237 59.5234 24.0135C59.7621 24.5033 59.8861 25.0411 59.8861 25.5859C59.8861 26.1308 59.7621 26.6685 59.5234 27.1584C59.2848 27.6482 58.9377 28.0773 58.5086 28.4131L31.0089 49.9534C30.392 50.4323 29.6358 50.697 28.8549 50.7073V50.7073Z" fill="white"/>
</svg>
