<svg width="210" height="210" viewBox="0 0 210 210" fill="none" xmlns="http://www.w3.org/2000/svg">
<circle cx="105" cy="105" r="105" fill="#4BB7E8"/>
<path d="M77.5447 63.7259L69.6815 86.556L61.8183 63.7259H54.5359L66.6435 95H72.7643L84.8271 63.7259H77.5447ZM87.906 63.3238V68.283H94.4289V63.3238H87.906ZM87.906 71.7678V95H94.4289V71.7678H87.906ZM120.52 84.2328C120.52 74.8505 115.204 71.5444 109.441 71.5444C104.079 71.5444 97.9584 74.8505 97.9584 83.5179C97.9584 92.0513 104.124 95.3127 109.396 95.3127C115.025 95.3127 118.555 93.0342 119.895 88.3431H114.221C113.551 89.6834 112.21 90.4876 109.753 90.4876C106.581 90.4876 104.749 89.0132 104.258 85.4391H120.476C120.52 85.037 120.52 84.6795 120.52 84.2328ZM104.303 81.4181C104.794 78.0226 106.581 76.3696 109.441 76.3696C112.523 76.3696 114.221 78.38 114.31 81.4181H104.303ZM156.444 71.7678H149.876L146.213 86.7347L141.611 71.7678H136.428L131.827 86.7347L128.163 71.7678H121.596L128.163 95H133.748L139.02 79.497L144.336 95H149.876L156.444 71.7678ZM54.7035 117.726V149H61.5391V129.208H61.7625L68.8215 149H73.8254L80.9291 129.208H81.1524V149H87.9881V117.726H80.0802L71.3234 139.931L62.6114 117.726H54.7035ZM103.028 125.544C98.1134 125.544 91.5012 128.806 91.5012 137.473C91.5012 146.051 98.1134 149.313 103.028 149.313C107.942 149.313 114.555 146.051 114.555 137.473C114.555 128.806 107.942 125.544 103.028 125.544ZM108.3 137.473C108.3 142.03 105.798 144.041 103.028 144.041C100.258 144.041 97.756 142.03 97.756 137.473C97.756 132.693 100.258 130.816 103.028 130.816C105.798 130.816 108.3 132.693 108.3 137.473ZM131.546 125.544C127.57 125.544 125.291 127.778 124.621 130.906V125.768H118.098V149H124.621V136.624C125.157 133.408 127.257 131.397 132.037 131.397C132.35 131.397 132.663 131.397 133.556 131.442V125.723C132.663 125.544 132.037 125.544 131.546 125.544ZM157.432 138.233C157.432 128.851 152.115 125.544 146.352 125.544C140.99 125.544 134.87 128.851 134.87 137.518C134.87 146.051 141.035 149.313 146.307 149.313C151.936 149.313 155.466 147.034 156.806 142.343H151.132C150.462 143.683 149.122 144.488 146.664 144.488C143.492 144.488 141.661 143.013 141.169 139.439H157.387C157.432 139.037 157.432 138.68 157.432 138.233ZM141.214 135.418C141.705 132.023 143.492 130.37 146.352 130.37C149.434 130.37 151.132 132.38 151.221 135.418H141.214Z" fill="white"/>
</svg>
