<svg width="61" height="79" viewBox="0 0 61 79" fill="none" xmlns="http://www.w3.org/2000/svg">
<path d="M30.3446 0.226562C17.815 0.226562 7.72667 10.1903 7.72667 22.5652V26.2883C3.58006 26.2883 0.187378 29.6391 0.187378 33.7345V70.9656C0.187378 75.0611 3.58006 78.4119 7.72667 78.4119H52.9624C57.1091 78.4119 60.5017 75.0611 60.5017 70.9656V33.7345C60.5017 29.6391 57.1091 26.2883 52.9624 26.2883V22.5652C52.9624 10.1903 42.8742 0.226562 30.3446 0.226562ZM30.3446 7.67278C38.925 7.67278 45.4231 14.0907 45.4231 22.5652V26.2883H15.266V22.5652C15.266 14.0907 21.7641 7.67278 30.3446 7.67278ZM30.3446 44.9039C34.4912 44.9039 37.8839 48.2547 37.8839 52.3501C37.8839 56.4455 34.4912 59.7963 30.3446 59.7963C26.1979 59.7963 22.8053 56.4455 22.8053 52.3501C22.8053 48.2547 26.1979 44.9039 30.3446 44.9039Z" fill="white"/>
</svg>
