<svg width="450" height="411" viewBox="0 0 450 411" fill="none" xmlns="http://www.w3.org/2000/svg">
<path d="M94.4528 21.7767C100.535 20.3476 221.455 9.13513 225.317 9.61666C225.22 10.2775 225.26 10.9949 225.002 11.5801C223.618 14.7137 222.159 17.8134 220.608 21.1895C200.899 23.0399 181.23 24.867 161.563 26.7336C142.059 28.5826 122.561 30.463 102.586 32.3735C95.1414 48.56 87.6932 64.749 79.9101 81.6697C125.777 77.433 171.042 73.0728 216.513 68.7928C225.994 48.1446 235.371 27.7196 244.848 7.07381C269.695 4.74773 294.301 2.4438 318.579 0.17155C321.657 3.05761 388.742 96.6278 394.066 105.347C394.478 106.023 394.655 106.844 395.122 108.083C390.756 108.973 386.735 109.217 382.162 109.277C376.303 101.436 370.676 93.2243 364.897 85.1318C359.195 77.1487 353.534 69.1365 347.856 61.1365C342.078 52.9961 336.301 44.8557 330.523 36.7153C324.855 28.729 319.186 20.7426 313.312 12.4653C295.609 14.1268 278.056 15.7805 259.959 17.4802C286.643 55.0774 312.997 92.2089 339.547 129.618C361.69 127.564 383.912 125.505 405.853 123.471C409.163 126.3 446.284 178.043 449.71 184.604C431.632 223.955 413.373 263.698 394.875 303.965C393.813 302.803 393.198 302.241 392.72 301.582C390.81 298.948 388.946 296.287 386.857 293.343C403.321 257.474 419.727 221.734 436.148 185.958C425.655 171.173 415.334 156.631 404.714 141.668C385.595 183.287 366.672 224.479 347.678 265.818C360.749 284.235 373.68 302.453 386.428 320.415C385.66 324.357 359.511 382.254 355.426 389.21C312.221 393.266 268.771 397.342 224.832 401.467C225.833 396.787 227.989 393.183 230.002 389.196C269.171 385.507 308.347 381.819 347.911 378.092C355.297 362.019 362.67 345.971 370.294 329.384C368.702 329.279 367.596 329.055 366.519 329.155C330.39 332.508 294.267 335.893 258.142 339.274C251.979 339.85 245.815 340.431 239.655 341.019C237.954 341.182 236.263 341.388 234.03 341.635C224.349 361.828 215.407 382.459 205.55 403.296C180.961 405.609 156.202 407.935 131.115 410.287C106.108 375.052 81.2178 339.99 56.3529 304.906C55.8913 304.255 55.724 303.396 55.2338 302.169C59.5959 301.405 63.629 301.178 67.4527 300.997C71.1757 304.444 123.679 377.694 136.856 397.76C154.331 396.533 172.039 394.394 189.688 392.961C189.872 392.691 189.999 392.58 190.027 392.453C190.057 392.292 190.052 392.09 189.975 391.959C189.634 391.362 189.299 390.761 188.903 390.203C163.112 353.856 137.316 317.512 111.276 280.822C88.9053 282.888 66.5252 284.956 43.9675 287.042C29.577 266.766 15.2667 246.604 0.674531 226.044C18.8515 186.447 37.0526 146.798 55.4564 106.716C59.161 109.739 61.0236 113.523 63.5363 117.238C47.1308 152.993 30.7272 188.736 14.2701 224.6C24.6323 239.2 34.8658 253.618 45.3471 268.386C46.0002 267.428 46.7618 266.594 47.214 265.614C61.5847 234.366 75.9212 203.107 90.266 171.851C93.9985 163.725 97.7476 155.608 101.477 147.484C101.901 146.56 102.265 145.607 102.774 144.381C89.7438 126.022 76.7162 107.667 63.5624 89.1337C73.9612 66.4649 84.2666 43.991 94.4528 21.7767ZM121.157 273.68C147.669 311.034 173.921 348.022 200.646 385.677C208.312 369.128 215.691 353.117 223.092 336.766C200.154 304.448 177.272 272.208 154.417 240.006C155.944 235.72 157.356 231.814 160.168 227.785C184.527 262.106 208.498 295.88 232.624 329.872C278.199 325.595 323.515 321.343 369.326 317.042C358.685 302.049 348.374 287.521 337.892 272.753C298.582 276.454 259.257 280.156 219.975 283.852C217.257 280.356 214.414 277.438 212.84 272.835C233.73 270.61 254.229 268.894 274.698 266.911C295.379 264.907 316.061 262.978 336.762 261.016C338.215 258.018 339.526 255.42 340.745 252.779C346.936 239.351 353.097 225.908 359.271 212.471C370.253 188.565 381.24 164.665 392.2 140.749C392.788 139.461 393.121 138.052 393.684 136.365C375.468 138.087 357.868 139.748 340.167 141.424C323.572 177.551 307.087 213.434 290.64 249.239C286.125 249.52 282.141 250.592 277.43 249.936C294.856 211.928 312.098 174.328 329.198 137.035C323.672 127.733 252.473 28.0334 249.413 25.3098C242.083 41.281 234.777 57.1991 227.322 73.4441C228.561 75.19 229.742 76.8537 230.923 78.5173C251.541 107.567 272.161 136.614 292.765 165.673C293.936 167.323 294.947 169.087 296.004 170.751C294.147 174.74 293.145 178.73 290.031 182.464C288.54 180.486 287.292 178.916 286.131 177.28C264.41 146.691 242.697 116.098 220.984 85.5047C219.808 83.8479 218.632 82.191 217.432 80.5C171.89 84.8251 126.824 89.0956 81.2808 93.4114C92.0366 108.566 102.355 123.104 112.686 137.66C132.591 135.81 152.27 133.99 171.947 132.153C191.59 130.318 211.208 128.229 230.802 126.666C233.291 130.392 236.473 133.076 237.558 137.716C195.923 141.651 154.738 145.545 113.523 149.44C94.4864 190.893 75.5715 232.089 56.281 274.097C74.9067 272.352 92.6335 270.688 110.314 269.032C126.888 232.941 143.308 197.186 159.732 161.428C164.162 160.781 168.264 159.861 173.034 160.563C155.568 198.646 138.313 236.27 121.157 273.68Z" fill="url(#paint0_linear_12_7)"/>
<defs>
<linearGradient id="paint0_linear_12_7" x1="10.3868" y1="168.793" x2="440.033" y2="241.675" gradientUnits="userSpaceOnUse">
<stop stop-color="#395EC2"/>
<stop offset="0.4944" stop-color="#4366B0"/>
<stop offset="1" stop-color="#4BBBEB"/>
</linearGradient>
</defs>
</svg>
