<svg width="294" height="494" viewBox="0 0 294 494" fill="none" xmlns="http://www.w3.org/2000/svg">
<path d="M293.427 133.118C294.059 139.918 288.01 272.528 286.908 276.637C286.207 276.432 285.424 276.369 284.829 276.001C281.645 274.031 278.508 271.985 275.086 269.798C276.047 248.18 277.028 226.609 277.965 205.034C278.897 183.639 279.794 162.245 280.73 140.33C264.324 129.835 247.916 119.335 230.766 108.363C228.454 158.661 226.366 208.327 224.16 258.203C245.091 271.575 265.795 284.8 286.723 298.167C285.504 325.419 284.297 352.407 283.106 379.036C279.518 381.934 168.116 440.493 157.874 444.946C157.081 445.291 156.164 445.359 154.753 445.678C154.446 440.818 154.787 436.428 155.41 431.467C164.781 426.303 174.518 421.445 184.15 416.405C193.651 411.432 203.177 406.508 212.693 401.564C222.376 396.533 232.059 391.502 241.742 386.471C251.242 381.535 260.741 376.599 270.587 371.483C271.451 352.066 272.301 332.812 273.183 312.962C228.461 336.198 184.294 359.147 139.796 382.267C138.69 406.551 137.576 430.921 136.478 454.983C132.917 458.141 71.3092 490.549 63.6902 493.272C23.8027 467.779 -16.4806 442.032 -57.2966 415.946C-55.8792 414.971 -55.1781 414.39 -54.3924 413.971C-51.2536 412.299 -48.0914 410.682 -44.5895 408.863C-8.23015 432.084 27.9987 455.223 64.2648 478.385C81.8512 469.247 99.1485 460.26 116.947 451.012C74.7606 424.051 33.0078 397.366 -8.89437 370.583C-30.8011 381.965 -52.4716 393.225 -73.8367 404.326C-77.9899 402.901 -136.743 365.88 -143.66 360.411C-141.553 313.021 -139.43 265.364 -137.287 217.169C-132.37 218.957 -128.792 221.833 -124.778 224.613C-126.676 267.577 -128.576 310.548 -130.492 353.946C-114.2 364.362 -97.9333 374.759 -81.1213 385.509C-80.7681 383.8 -80.3591 382.636 -80.3055 381.455C-78.5017 341.833 -76.7328 302.213 -74.9598 262.59C-74.6557 255.831 -74.3579 249.069 -74.0682 242.311C-73.9882 240.445 -73.9574 238.583 -73.8886 236.128C-94.2958 222.609 -115.289 209.823 -136.367 196.017C-135.173 169.046 -133.967 141.888 -132.739 114.373C-90.8275 92.5963 -49.1214 70.9215 -7.39432 49.2771C-6.62066 48.8751 -5.66511 48.8232 -4.2626 48.477C-4.09145 53.3149 -4.45244 57.7158 -4.83139 61.8831C-9.12387 65.3955 -96.3314 111.224 -120.04 122.472C-121.34 141.578 -121.687 161.073 -122.791 180.397C-122.526 180.637 -122.425 180.791 -122.291 180.84C-122.122 180.897 -121.902 180.923 -121.749 180.859C-121.052 180.579 -120.35 180.307 -119.686 179.962C-76.4528 157.505 -33.2217 135.042 10.4206 112.367C11.5482 87.8344 12.6757 63.2918 13.8104 38.5542C37.9281 26.023 61.9115 13.5618 86.3671 0.855043C126.505 26.492 166.697 52.1629 207.326 78.1184C203.496 81.6749 199.118 83.1223 194.719 85.2841C158.474 62.143 122.241 39.0058 85.8856 15.7926C68.5191 24.8159 51.3683 33.7271 33.8023 42.8541C34.741 43.7053 35.5294 44.6554 36.5222 45.2924C68.1937 65.5523 99.883 85.777 131.566 106.01C139.803 111.274 148.028 116.554 156.263 121.814C157.2 122.412 158.177 122.949 159.428 123.685C181.265 112.338 203.099 100.994 225.144 89.5399C248.124 104.209 270.907 118.747 293.427 133.118ZM16.6668 124.14C-27.7655 147.226 -71.7621 170.085 -116.553 193.358C-99.7874 204.147 -83.5617 214.545 -66.9716 225.017C-28.5291 205.043 9.81987 185.118 48.124 165.216C52.5349 167.515 56.551 169.631 60.4903 173.281C19.6657 194.493 -20.5074 215.366 -60.9412 236.375C-63.1657 286.364 -65.3782 336.069 -67.6132 386.317C-49.7783 377.05 -32.4973 368.071 -14.9312 358.944C-13.0254 315.826 -11.1178 272.69 -9.21155 229.602C-5.01709 227.185 -1.42944 224.546 3.79029 223.534C3.05693 246.487 1.83155 268.94 0.899751 291.401C-0.0407814 314.094 -1.06354 336.778 -2.0531 359.486C0.974479 361.511 3.59032 363.321 6.2663 365.037C19.8741 373.761 33.502 382.453 47.1219 391.16C71.354 406.646 95.578 422.137 119.824 437.601C121.13 438.432 122.606 439.004 124.348 439.867C125.223 419.886 126.072 400.58 126.92 381.161C90.3011 357.759 53.929 334.514 17.6357 311.32C18.0111 306.389 17.4494 301.915 18.8683 296.912C57.3995 321.497 95.5163 345.822 133.322 369.946C144.225 365.361 262.883 303.27 266.292 300.366C250.102 290.027 233.966 279.723 217.498 269.207C215.422 270.286 213.443 271.315 211.464 272.343C176.91 290.296 142.358 308.254 107.796 326.191C105.833 327.211 103.771 328.04 101.811 328.934C97.7703 326.324 93.6008 324.639 90.0266 320.705C92.393 319.388 94.2803 318.273 96.2267 317.262C132.613 298.346 169.003 279.438 205.393 260.53C207.364 259.506 209.335 258.482 211.347 257.437C213.514 207.477 215.669 158.041 217.847 108.081C199.821 117.447 182.528 126.432 165.214 135.428C164.223 157.258 163.233 178.839 162.263 200.42C161.294 221.965 160.605 243.519 159.35 264.969C154.941 267.104 151.557 270.145 146.37 270.622C148.372 224.951 150.351 179.773 152.333 134.562C110.315 107.715 68.5559 81.0389 25.9741 53.8335C25.0622 74.2626 24.1967 93.7061 23.3304 113.098C59.9138 136.472 96.1573 159.63 132.403 182.791C132.437 187.685 132.816 192.265 131.338 197.323C92.7325 172.684 54.5908 148.342 16.6668 124.14Z" fill="url(#paint0_linear_12_73)"/>
<defs>
<linearGradient id="paint0_linear_12_73" x1="146.893" y1="19.9826" x2="3.35407" y2="474.21" gradientUnits="userSpaceOnUse">
<stop stop-color="#20419A"/>
<stop offset="0.4944" stop-color="#4366B0"/>
<stop offset="1" stop-color="#4BBBEB"/>
</linearGradient>
</defs>
</svg>
